<?xml version="1.0" encoding="utf-8"?>
<!-- Generator: Adobe Illustrator 16.0.0, SVG Export Plug-In . SVG Version: 6.00 Build 0)  -->
<!DOCTYPE svg PUBLIC "-//W3C//DTD SVG 1.1//EN" "http://www.w3.org/Graphics/SVG/1.1/DTD/svg11.dtd">
<svg version="1.1" id="Layer_1" xmlns="http://www.w3.org/2000/svg" xmlns:xlink="http://www.w3.org/1999/xlink" x="0px" y="0px"
	 width="500px" height="442px" viewBox="0 0 500 442" enable-background="new 0 0 500 442" xml:space="preserve">
<g>
	<g>
		<polygon fill="#E2B897" points="177.758,433.271 34.662,433.271 37.191,363.057 37.264,360.935 37.281,360.493 154.954,355.116 
			171.852,354.345 172.343,360.896 174.5,389.716 174.503,389.757 175.285,400.228 175.285,400.231 175.628,404.789 		"/>
		<path fill="#E2B897" d="M109.559,433.271H34.605l1.346-71.355l0.027-1.421l1.286,0.441l13.714,4.711l34.07,11.702
			c0,0,0.017,0.008,0.056,0.02l22.566,7.751L109.559,433.271z"/>
		<polygon fill="#F8BD8C" points="124.25,175.417 83.121,180.236 82.112,152.546 82.042,150.641 81.91,146.997 115.559,143.052 
			117.749,142.797 119.588,152.03 		"/>
		<path fill="#31185E" d="M76.79,171.162c0,0-47.92,19.967-49.252,23.96c-1.332,3.993-6.656,15.308-6.656,15.308
			s23.294,56.575,17.304,75.876c-5.99,19.301-1.997,51.249-1.997,61.232c0,9.982-3.994,13.977,3.328,16.639
			c7.321,2.662,31.282,1.332,44.593,0c13.311-1.332,40.6,0.413,46.59,1.538c5.991,1.125,41.931-4.865,41.931-4.865
			s4.66-25.292,3.328-37.938c-1.331-12.646,0.479-42.597,0.24-47.257c-0.24-4.659,2.28-6.656,0.022-17.97
			c-2.259-11.315,9.057-73.214,9.057-73.214l-55.242-20.134L76.79,171.162z"/>
		<g>
			<polygon fill="#2A1656" points="101.816,168.827 94.904,191.94 64.495,176.595 71.865,168.827 			"/>
			<path fill="#1D1647" d="M95.239,192.719l-31.644-15.968l8.036-8.47h30.916L95.239,192.719z M65.394,176.438l29.175,14.722
				l6.517-21.789H72.1L65.394,176.438z"/>
		</g>
		<g>
			<polygon fill="#2A1656" points="95.888,168.827 105.208,191.94 139.896,167.512 131.612,158.583 			"/>
			<path fill="#1D1647" d="M104.958,192.781l-9.803-24.311l36.628-10.502l8.936,9.633L104.958,192.781z M96.618,169.184
				l8.837,21.915l33.618-23.672l-7.633-8.227L96.618,169.184z"/>
		</g>
		<g>
			<path fill="#31185E" d="M44.599,185.291c0,0,20.475,7.931,18.598,88.227l74.587-17.121l9.145,37.788
				c0,0-81.855,35.421-103.101,34.833c-21.245-0.592-34.993-97.42-30.616-108.049c4.372-10.627,5.576-25.764,30.57-35.212
				L44.599,185.291z"/>
		</g>
		<polygon fill="#F8BD8C" points="141.733,258.311 160.95,251.122 156.182,280.136 141.161,280.89 137.873,260.34 		"/>
		<polygon fill="#F8BD8C" points="81.816,270.348 66.11,273.967 65.484,270.161 64.447,263.85 65.521,264.253 		"/>
		<path fill="#31185E" d="M167.852,189.465l-12.308,87.587l-78.148-10.51l-9.232,38.535c0,0,105.842,25.693,126.76,18.686
			c20.922-7.007,11.076-103.348,5.54-115.612c-5.54-12.26-9.28-21.851-16.661-24.187
			C176.418,181.63,167.852,189.465,167.852,189.465L167.852,189.465z"/>
		<path fill="#EAB186" d="M119.588,152.03c-1.646,3.773-4.512,7.276-8.947,8.87c-9.777,3.514-22.006-3.826-28.528-8.355l-0.07-1.905
			c0.565,0.087,1.202,0.164,1.92,0.224c4.309,0.358,10.736,0.242,18.821-1.78c5.783-1.447,9.917-3.783,12.775-6.032l2.189-0.256
			L119.588,152.03z"/>
		<path fill="#F8BD8C" d="M124.351,107.051c1.794,22.687-8.926,42.086-25.585,43.403c-16.657,1.317-31.616-16.006-33.41-38.692
			C63.562,89.075,75.612,69.616,92.271,68.3C108.928,66.982,122.556,84.364,124.351,107.051z"/>
		<path fill="#1A1A1A" d="M101.576,156.811c-15.947,2.37-31.576-14.11-34.93-36.766c-0.319-2.183-0.506-4.34-0.612-6.47
			c3.727,22.018,19.115,37.858,34.769,35.541c14.376-2.129,24.067-18.849,23.375-38.736c0.08,0.372,0.133,0.746,0.186,1.118
			C127.718,134.155,117.522,154.442,101.576,156.811z"/>
		<path fill="#1A1A1A" d="M77.898,56.905c0,0-0.19,16.861,4.01,19.302c4.199,2.44,8.999-1.997,12.811-2.662
			s11.528-1.32,16.933,3.389c5.405,4.71,10.043,18.447,10.043,18.447l1.186,4.602c0,0,3.16,0.797,3.493-3.53
			c0.333-4.327-0.555-22.463,0-24.238c0.555-1.774,0.333-3.55-1.664-5.546c-1.997-1.997-4.548-5.103-3.772-6.434
			c0.777-1.332,4.104-4.77,0.887-7.765c-3.217-2.996-18.747-4.881-21.632-2.219C97.311,52.912,86.552,42.706,77.898,56.905z"/>
		<path fill="#1A1A1A" d="M74.958,58.181c0,0-15.141,1.664-15.475,14.975c0,0-1.83,2.996-5.491,7.82
			c-3.661,4.825,0.665,12.979,1.664,17.804s3.051,8.82,2.939,10.261c-0.111,1.442,2.659,4.215,5.156,3.106
			c2.498-1.11,3.053-4.071,3.053-4.071s0.222-18.781,2.995-22.109c2.773-3.327,7.488-6.599,10.206-7.987
			c2.718-1.387,3.327-3.994,3.327-4.326s-3.438-18.525-3.438-18.525L74.958,58.181z"/>
		
			<ellipse transform="matrix(-0.4374 -0.8993 0.8993 -0.4374 -10.92 228.92)" fill="#F8BD8C" cx="66.146" cy="117.876" rx="8.636" ry="6.101"/>
		
			<ellipse transform="matrix(0.1143 -0.9934 0.9934 0.1143 2.2025 219.756)" fill="#F8BD8C" cx="124.344" cy="108.643" rx="8.635" ry="6.1"/>
		<path fill="#1A1A1A" d="M84.732,100.765c-2.072,0.13-4.261,0.405-6.319,0.836c-2.053,0.43-4.111,1.044-5.648,1.999l-0.076,0.047
			c-0.813,0.504-1.88,0.254-2.383-0.558c-0.495-0.8-0.26-1.846,0.521-2.36c2.226-1.46,4.511-2.133,6.777-2.701
			c2.287-0.545,4.516-0.898,6.88-1.12c1.063-0.1,2.005,0.682,2.104,1.743c0.1,1.063-0.681,2.004-1.743,2.104
			c-0.017,0.002-0.034,0.003-0.05,0.004L84.732,100.765z"/>
		
			<ellipse transform="matrix(-0.1464 -0.9892 0.9892 -0.1464 -15.9813 204.9642)" fill="#1A1A1A" cx="80.444" cy="109.377" rx="3.026" ry="2.551"/>
		<path fill="#1A1A1A" d="M102.322,98.663c2.047-0.342,4.242-0.572,6.343-0.619c2.097-0.046,4.24,0.085,5.954,0.666l0.085,0.029
			c0.906,0.306,1.888-0.179,2.195-1.084c0.3-0.89-0.165-1.857-1.042-2.179c-2.499-0.918-4.878-1.055-7.214-1.094
			c-2.35-0.014-4.602,0.149-6.955,0.47c-1.058,0.144-1.798,1.118-1.655,2.176c0.144,1.058,1.119,1.798,2.177,1.654
			c0.017-0.002,0.032-0.005,0.049-0.008L102.322,98.663z"/>
		
			<ellipse transform="matrix(0.0818 0.9966 -0.9966 0.0818 205.2923 -10.6745)" fill="#1A1A1A" cx="108.439" cy="106.08" rx="3.026" ry="2.552"/>
		<path fill="#1A1A1A" d="M86.771,146.453c0.876,0.595,3.921-0.139,4.907-0.347c1.678-0.356,3.597-0.996,4.648-2.447
			c1.203-1.662,0.644-4.167,0.494-6.064c-0.042-0.542,0.05-2.037-0.398-2.484c0,0,4.397-0.659,4.438-0.666
			c-0.393,0.06,0.784,6.256,0.972,6.761c0.499,1.35,1.857,2.113,3.189,2.45c1.395,0.354,2.912,0.392,4.34,0.288
			c0.352-0.024,3.79-0.319,3.82-0.68c-0.026,0.304-0.25,0.549-0.461,0.768c-2.241,2.295-4.722,4.354-7.2,6.386
			c0,0-11.759,0.998-12.091,0.665C93.096,150.751,86.784,146.462,86.771,146.453z"/>
		<path fill="#FCFCFC" d="M108.671,130.116c-1.544,2.742-4.819,5.032-8.946,5.831c-5.484,1.064-10.596-0.799-12.566-4.26
			c0-0.053,0.054-0.106,0.106-0.16c0.692-0.585,1.411-1.092,2.182-1.518l16.107-1.917
			C106.807,128.36,107.925,128.839,108.671,130.116z"/>
		<g>
			<path fill="#1A1A1A" d="M85.731,148.648c-0.346-3.354-1.306-14.09,0.096-17.286v-0.217l0.478-0.541
				c0.887-0.759,1.671-1.304,2.5-1.76c2.611-1.531,5.866-2.412,9.38-2.534c1.932-0.088,3.835-0.02,5.663,0.194l0.452,0.055
				c0.521,0.061,1.03,0.122,1.539,0.234c1.291,0.274,2.915,0.826,3.98,2.653c1.105,1.89,1.578,3.93,2.039,5.904
				c0.117,0.508,0.236,1.015,0.364,1.517c0.77,3.073,1.009,5.673,0.752,8.186l-2.646-0.271c0.221-2.196,0.005-4.504-0.687-7.261
				c-0.129-0.516-0.252-1.042-0.377-1.568c-0.431-1.862-0.84-3.623-1.745-5.165c-0.437-0.754-1.065-1.144-2.24-1.393
				c-0.431-0.095-0.855-0.143-1.287-0.193l-0.465-0.056c-1.671-0.196-3.435-0.256-5.234-0.177c-3.089,0.108-5.913,0.864-8.172,2.188
				c-0.652,0.359-1.253,0.771-1.856,1.267l-0.021,0.029c-0.774,1.186-0.556,9.191,0.133,15.922L85.731,148.648z"/>
		</g>
		<g>
			<path fill="#1A1A1A" d="M93.336,120.626c-0.129,0-0.255-0.07-0.321-0.193c-0.094-0.178-0.027-0.396,0.149-0.491l2.863-1.523
				c0.91-0.484,1.417-1.36,1.29-2.234l-1.454-10.083c-0.029-0.199,0.109-0.383,0.308-0.411c0.198-0.027,0.382,0.11,0.412,0.307
				l1.454,10.084c0.17,1.18-0.485,2.348-1.668,2.979l-2.863,1.523C93.452,120.612,93.394,120.626,93.336,120.626z"/>
		</g>
		<g>
			<path fill="#666B6D" d="M109.683,420.007c-0.394,0-0.716-0.313-0.726-0.709c-0.284-12.023-1.022-31.559-1.809-33.646
				c-2.64-1.574-15.676-5.642-22.307-7.605c-0.384-0.113-0.604-0.517-0.49-0.902c0.113-0.384,0.518-0.604,0.902-0.49
				c0.805,0.238,19.733,5.854,22.812,7.858c0.481,0.313,1.08,0.703,1.796,17.958c0.347,8.351,0.546,16.711,0.549,16.795
				c0.009,0.401-0.309,0.734-0.71,0.742C109.695,420.007,109.688,420.007,109.683,420.007z M107.112,385.567L107.112,385.567
				L107.112,385.567z"/>
		</g>
		<g>
			<path fill="#1D1647" d="M65.176,274.692c-0.152,0-0.302-0.048-0.427-0.14c-0.179-0.129-0.287-0.331-0.298-0.552
				c-0.105-2.162-3.016-36.658-3.044-37.007c-0.034-0.399,0.263-0.75,0.663-0.784c0.398-0.033,0.75,0.263,0.784,0.662
				c0.111,1.324,2.56,30.352,2.987,36.163c4.07-1.089,21.555-5.743,28.551-7.127c0.393-0.079,0.775,0.179,0.853,0.572
				c0.078,0.393-0.177,0.776-0.571,0.853c-7.854,1.555-29.095,7.277-29.308,7.335C65.303,274.686,65.238,274.692,65.176,274.692z"/>
		</g>
		<g>
			<path fill="#1D1647" d="M46.148,328.279c-2.304,0-4.406-0.237-6.138-0.805c-10.42-3.413-17.548-31.416-17.847-32.606
				c-0.098-0.39,0.139-0.784,0.528-0.881c0.389-0.099,0.783,0.138,0.881,0.527c0.071,0.284,7.228,28.416,16.89,31.58
				c9.81,3.213,33.446-5.163,33.684-5.248c0.377-0.137,0.793,0.062,0.928,0.438c0.135,0.379-0.062,0.794-0.439,0.93
				C73.813,322.509,57.522,328.279,46.148,328.279z"/>
		</g>
		<g>
			<path fill="#1D1647" d="M103.08,311.848c-0.266,0-0.522-0.146-0.649-0.402c-0.18-0.356-0.035-0.793,0.323-0.974l22.104-11.077
				c0.359-0.179,0.796-0.032,0.976,0.326c0.179,0.357,0.035,0.794-0.324,0.975l-22.104,11.075
				C103.3,311.823,103.189,311.848,103.08,311.848z"/>
		</g>
		<g>
			<path fill="#1D1647" d="M154.842,277.419c-0.039,0-0.077-0.004-0.115-0.009c-0.396-0.063-0.666-0.438-0.603-0.832l6.108-38.113
				c0.063-0.396,0.439-0.667,0.832-0.602c0.396,0.063,0.666,0.436,0.603,0.831l-6.109,38.113
				C155.501,277.166,155.193,277.419,154.842,277.419z"/>
		</g>
		<g>
			<path fill="#1D1647" d="M165.576,324.443c-0.038,0-0.075-0.003-0.112-0.009l-36.613-5.683c-0.396-0.061-0.667-0.433-0.606-0.828
				c0.062-0.396,0.432-0.667,0.829-0.606l36.614,5.682c0.396,0.063,0.668,0.433,0.606,0.83
				C166.236,324.188,165.927,324.443,165.576,324.443z"/>
		</g>
	</g>
	<g>
		<g>
			<polygon fill="#F8BD8C" points="267.646,100.976 261.046,125.083 275.277,141.745 295.611,131.554 294.759,106.159 			"/>
		</g>
		<g>
			<polygon fill="#31185E" points="340.298,313.722 340.298,433.271 279.665,433.271 279.665,316.751 336.319,313.921 			"/>
		</g>
		<g>
			<path fill="#31185E" d="M299.372,319.277l-2.074,5.738l-2.043,5.664l-6.868,19.018l-8.722,24.146l-14.002,59.428h-54.857
				c0.032,0.168,0.045,0.253,0.045,0.253l-7.532,0.182l0.053-0.435l3.023-24.338l0.441-3.571l1.184-9.549l1.111-8.936l0.837-6.754
				l3.923-31.614l1.068-8.604l2.56-20.629L299.372,319.277L299.372,319.277z"/>
		</g>
		<g>
			<path fill="#C5A2FD" d="M262.599,120.654c0,0-29.809,18.198-42.945,24.591c-13.137,6.395-21.726,15.739-24.757,21.149
				c-3.032,5.411-10.105,10.329-9.6,13.771c0.505,3.443-11.62,18.198-14.146,30.494c-2.526,12.296-7.073,53.119-7.073,54.593
				c0,1.476,8.084,35.413,8.084,35.413s23.747,23.608,28.799,29.019c5.052,5.41,20.21,14.264,22.231,14.264
				c2.021,0,14.652-8.362,14.147-16.724c-0.505-8.36-4.042-32.461-7.579-36.396c-2.766-3.076-6.149-5.853-8.701-9.976
				c-0.712-1.147-1.359-2.402-1.909-3.794c-2.527-6.396,4.547-21.643,4.547-21.643s22.737-54.101,21.725-61.479
				c-1.01-7.377,6.568-33.445,4.547-40.331C247.948,146.722,262.599,120.654,262.599,120.654z"/>
		</g>
		<g>
			<path fill="#C5A2FD" d="M342.934,187.025c0,0,5.054,69.375,4.546,81.18c-0.503,11.804-2.959,18.69,0.038,31.969
				c2.994,13.28,1.549,17.215,0,22.133c-1.553,4.918-20.751,4.427-20.751,4.427l-89.968-5.239l-33.819-48.863l43.957-136.728
				l15.662-15.247c0,0,17.938,15.247,32.843,6.148c0,0,41.43,23.361,47.24,27.788C348.492,159.018,342.934,187.025,342.934,187.025z
				"/>
		</g>
		<g>
			<path fill="#C5A2FD" d="M343.272,156.394c0,0,14.482,14.428,14.145,23.937c-0.336,9.509,3.705,44.921,3.032,55.085
				c-0.674,10.167,1.011,10.494,2.358,18.034c1.347,7.542,6.904,22.625,7.41,39.347c0.504,16.723,7.831,28.772,2.778,37.135
				c-5.052,8.36-8.842,10.819-8.842,10.819s-1.262-12.761-3.536-14.004s-13.101-4.439-13.101-4.439l-11.993-132.467L343.272,156.394
				z"/>
		</g>
		<g>
			<path fill="#EAB186" d="M264.389,104.33c-1.455-3.388,9.688,18.758,21.063,17.514c9.755-1.063,10.159-19.095,10.159-19.095
				s-3.463,5.696-13.76,5.707C270.368,108.471,264.389,104.33,264.389,104.33L264.389,104.33L264.389,104.33z"/>
		</g>
		<g>
			
				<ellipse transform="matrix(0.0539 -0.9985 0.9985 0.0539 217.2165 379.8337)" fill="#F2B588" cx="309.054" cy="75.288" rx="8.823" ry="6.74"/>
		</g>
		<g>
			
				<ellipse transform="matrix(0.054 -0.9985 0.9985 0.054 169.2469 323.243)" fill="#F2B588" cx="255.214" cy="72.302" rx="8.823" ry="6.74"/>
		</g>
		<g>
			<path fill="#F8BD8C" d="M312.764,75.419c-3.526,20.716-15.541,38.518-32.098,37.624s-25.249-16.313-27.859-40.86
				c-2.292-21.534,15.54-38.518,32.097-37.625C301.461,35.451,316.401,54.047,312.764,75.419z"/>
		</g>
		<g>
			<path fill="#31185E" d="M274.764,42.704c0.049,1.37-0.163,3.577-0.03,4.24c0.368,1.831,1.33,3.613,2.887,4.459
				c1.074,0.583,2.32,0.673,3.525,0.705c4.4,0.115,8.994-1.779,13.214-1.584c1.941,0.089,3.417,1.498,5.065,2.599
				c3.049,2.035,8.663,1.557,8.663,1.559c2.876,4.021,3.153,10.013,6.086,13.727c0.705-0.439,1.341-1.017,2.004-1.574
				c3.943-3.319,4.177-3.923,2.897-9.13c-1.021-4.169,1.78-5.95,3.2-9.289c1.947-4.581,5.336-8.824,1.885-12.396
				c-4.485-4.64-7.744-8.37-10.604-14.444c-1.594-3.388-3.734-7.088-7.229-7.741c-5.639-1.05-9.933,5.146-15.608,1.365
				c-2.068-1.378-4.054-3.151-6.477-3.462c-2.512-0.322-4.967,1.018-7.012,2.633c-2.553,2.014-4.87,4.379-7.849,5.674
				c-4.913,2.133-10.562,2.988-14.594,6.976c-2.696,2.667-4.185,6.281-5.545,9.849c-1.152,3.023-3.194,6.498-3.494,9.746
				c-0.337,3.659,1.793,11.493,4.688,13.807c1.398,1.116,2.429,3.788,2.429,3.788s4.449-8.19,5.198-10.06
				c0.748-1.869,4.411-6.705,6.937-8.479c2.524-1.771,3.37-2.42,5.363-3.354C271.676,41.702,274.677,40.246,274.764,42.704z"/>
		</g>
		<g>
			<circle fill="#1B191B" cx="266.66" cy="71.158" r="2.61"/>
		</g>
		<g>
			<circle fill="#1B191B" cx="297.781" cy="72.838" r="2.609"/>
		</g>
		<g>
			<g>
				<path fill="#31185E" d="M260.394,63.792c-0.681-0.003-1.324-0.409-1.602-1.075c-0.373-0.889,0.051-1.915,0.939-2.287
					c8.419-3.505,14.777-0.148,15.043-0.005c0.851,0.459,1.165,1.521,0.705,2.37c-0.459,0.848-1.509,1.165-2.362,0.709
					c-0.242-0.129-5.246-2.677-12.041,0.157C260.853,63.749,260.62,63.793,260.394,63.792z"/>
			</g>
		</g>
		<g>
			<g>
				<path fill="#31185E" d="M292.056,64.902c-0.679-0.047-1.295-0.492-1.531-1.174c-0.314-0.912,0.172-1.908,1.083-2.224
					c8.622-2.966,14.756,0.784,15.014,0.944c0.82,0.513,1.066,1.593,0.557,2.41c-0.514,0.817-1.582,1.066-2.404,0.559
					c-0.234-0.144-5.066-3.002-12.027-0.604C292.516,64.889,292.281,64.917,292.056,64.902z"/>
			</g>
		</g>
		<g>
			<path fill="#1B191B" d="M313.758,67.841c0-0.004,0-0.004,0-0.004c-0.06-0.378-0.238-0.725-0.501-0.994
				c-0.062-0.066-0.129-0.123-0.203-0.176c0-0.004-0.003-0.004-0.003-0.004c-0.137-0.105-0.287-0.189-0.452-0.252
				c-0.613-0.231-1.467-0.5-2.588-0.749c-0.663-0.147-1.717-0.351-3.027-0.558c-1.253-0.202-2.739-0.413-4.325-0.588h-0.011
				c-2.271-0.252-4.75-0.435-7.065-0.431h-0.004c-1.264,0.003-2.48,0.063-3.585,0.196c-0.367,0.045-0.705,0.091-1.021,0.14
				c-4.177,0.64-4.365,1.667-4.33,2.239c0.008,0.091-0.086,0.144-0.165,0.097c-0.876-0.542-1.905-0.77-2.914-0.826
				c-1.005-0.053-2.061,0.062-2.987,0.507c-0.081,0.039-0.169-0.024-0.154-0.116c0.104-0.602-0.003-1.761-5.068-2.942
				c-0.099-0.024-0.199-0.045-0.302-0.066c-1.292-0.28-2.742-0.48-4.249-0.609H270.8c-1.771-0.157-3.617-0.224-5.372-0.234h-0.004
				c-2.595-0.021-4.987,0.083-6.651,0.203c-0.642,0.045-1.171,0.091-1.563,0.136c-1.21,0.137-2.14,0.326-2.806,0.495
				c-0.347,0.087-0.645,0.276-0.866,0.535l-0.003,0.004c-0.263,0.293-0.422,0.669-0.445,1.079c0,0.031-0.002,0.066-0.002,0.098
				c0,0.694,0.389,1.356,1.028,1.618c0.266,0.109,0.543,0.302,0.788,0.627c0.643,0.858,0.806,1.586,1.576,1.948
				c0.043,0.017,0.067,0.057,0.063,0.098c-0.12,1.697-0.102,4.585,0.564,6.771c0.423,1.383,1.05,2.48,1.937,3.346
				c0.845,0.833,1.931,1.454,3.297,1.902c1.331,0.438,2.872,0.704,4.408,0.784c1.606,0.087,3.215-0.024,4.571-0.354
				c2.945-0.711,5.183-2.806,6.298-5.895c1.013-2.809,1.421-5.573,1.353-7.191c0.229,0.074,0.44,0.028,0.655-0.15l0.027-0.004
				c0.042-0.035,0.099-0.077,0.138-0.122c0.354-0.325,1.478-1.149,3.696-1.03c2.22,0.123,3.247,1.058,3.563,1.419
				c0.034,0.052-0.004,0.094,0.031,0.137h-0.07c0.161,0.161,0.388,0.241,0.6,0.237c0.069,0,0.125,0.049,0.119,0.119
				c-0.215,1.619-0.031,4.343,0.651,7.167c0.774,3.191,2.792,5.518,5.647,6.541c1.31,0.474,2.903,0.757,4.514,0.844
				c1.535,0.083,3.097-0.014,4.464-0.305c0.857-0.185,1.618-0.44,2.294-0.78c1.583-0.796,2.691-2.045,3.472-3.875
				c0.896-2.102,1.217-4.971,1.278-6.669c0-0.046,0.03-0.081,0.073-0.095c0.799-0.274,0.972-0.984,1.699-1.77
				c0.257-0.272,0.519-0.43,0.76-0.519c0.288-0.102,0.537-0.273,0.732-0.49c0.165-0.186,0.295-0.406,0.373-0.644
				c0.052-0.151,0.08-0.309,0.09-0.474c0-0.032,0.004-0.062,0.004-0.098C313.779,68.019,313.772,67.928,313.758,67.841z
				 M277.022,75.667c-1.04,2.894-3.121,4.852-5.859,5.51c-2.533,0.613-5.993,0.445-8.609-0.417c-1.29-0.424-2.3-0.996-3.081-1.77
				c-0.795-0.788-1.355-1.793-1.747-3.076c-0.726-2.375-0.634-5.633-0.476-7.125v-0.015c0.226-0.945,0.799-2.736,2.027-3.664
				c0.18-0.133,0.372-0.249,0.578-0.343c2.204-0.984,6.853-1.44,11.413-0.438c4.565,0.999,6.289,2.2,6.95,3.542
				c0.021,0.049,0.049,0.094,0.073,0.14C278.571,69.249,278.179,72.457,277.022,75.667z M309.433,71.609
				c-0.002,1.496-0.266,4.746-1.243,7.03c-0.76,1.776-1.808,2.942-3.363,3.664c-0.578,0.27-1.226,0.48-1.955,0.634
				c-2.694,0.575-6.153,0.368-8.606-0.515c-2.648-0.95-4.509-3.121-5.232-6.109c-0.803-3.314-0.85-6.547-0.435-7.749
				c0.031-0.039,0.06-0.083,0.088-0.13c0.802-1.26,2.645-2.27,7.29-2.771c4.317-0.47,8.572,0.319,10.824,1.412
				c0.172,0.08,0.329,0.168,0.477,0.252c1.547,0.903,2.017,3.16,2.156,4.263V71.609L309.433,71.609z"/>
		</g>
		<g>
			<path d="M280.897,98.621c-3.246,0-5.474-1.495-5.508-1.52c-0.125-0.086-0.155-0.255-0.071-0.378
				c0.086-0.124,0.256-0.156,0.381-0.07c0.219,0.151,5.474,3.658,11.672-0.8c0.122-0.087,0.292-0.06,0.381,0.063
				c0.088,0.122,0.06,0.293-0.063,0.38C285.224,98.068,282.873,98.621,280.897,98.621z"/>
		</g>
		<g>
			<path d="M281.557,88.588c-0.051,0-0.1-0.015-0.146-0.042c-0.054-0.035-1.315-0.851-1.42-1.854
				c-0.092-0.899,0.285-5.468,0.301-5.662c0.012-0.149,0.146-0.262,0.294-0.249c0.15,0.012,0.262,0.144,0.249,0.293
				c-0.136,1.627-0.371,4.882-0.301,5.562c0.063,0.618,0.865,1.257,1.171,1.451c0.127,0.081,0.163,0.25,0.082,0.376
				C281.735,88.544,281.647,88.588,281.557,88.588z"/>
		</g>
		<g>
			<path fill="#9E4AFF" d="M216.31,224.177c-0.104,0-0.21-0.021-0.311-0.069c-0.362-0.173-0.518-0.604-0.345-0.967
				c0.791-1.672,7.405-21.484,7.52-23.01c0.029-0.399,0.38-0.702,0.778-0.67c0.4,0.029,0.7,0.378,0.67,0.778
				c-0.134,1.814-6.948,22.031-7.654,23.524C216.842,224.023,216.582,224.177,216.31,224.177z"/>
		</g>
		<g>
			<path fill="#9E4AFF" d="M285.527,130.623c-2.819,0-6.23-0.524-10.258-1.991c-0.528-0.192-7.918-3.96-9.394-4.712
				c-0.358-0.183-0.5-0.62-0.317-0.977c0.182-0.357,0.62-0.5,0.978-0.317c3.339,1.705,8.802,4.473,9.236,4.643
				c12.921,4.707,19.106-0.935,19.168-0.993c0.29-0.274,0.75-0.263,1.026,0.027c0.274,0.29,0.266,0.747-0.023,1.023
				C295.75,127.512,292.395,130.623,285.527,130.623z"/>
		</g>
		<g>
			<path fill="#9E4AFF" d="M279.667,374.571c-0.083,0-0.166-0.016-0.248-0.045c-0.379-0.136-0.572-0.553-0.437-0.931l8.721-24.146
				c0.137-0.378,0.553-0.574,0.93-0.438c0.379,0.138,0.573,0.553,0.437,0.931l-8.721,24.148
				C280.242,374.387,279.963,374.571,279.667,374.571z"/>
		</g>
	</g>
	<g>
		<g>
			<g>
				<path fill="#0B0635" d="M196.034,114.068c0,0,8.997-3.326,17.13,0.83c8.66,4.426,13.056,8.852,15.047,46.029
					c1.992,37.177,1.77,55.765,1.992,58.642c0.221,2.878-70.813,1.991-70.813,1.991v-92.5L196.034,114.068z"/>
			</g>
			<g>
				<path fill="#FCFCFC" d="M160.169,219.926c0,0-36.162,3.941-35.485,66.259c0.681,62.318-12.603,57.972-1.741,102.355
					c0,0,24.572,4.972,38.655-5.073l-1.429-122.573V219.926L160.169,219.926z"/>
			</g>
			<g>
				<path fill="#FF7C90" d="M248.317,433.705l0.053-0.435H132.376c1.16-6.932,3.807-17.185,7.065-28.481
					c0.302-1.049,0.61-2.109,0.921-3.175l0.018-0.063c1.149-3.92,2.361-7.935,3.597-11.956l0.061-0.196
					c5.63-18.3,11.78-36.684,15.146-46.593c0.003-0.008,0.003-0.011,0.003-0.014c0.794-2.334,1.433-4.193,1.871-5.473v-0.006
					c0.444-1.279,0.686-1.976,0.686-1.976h75.479c0.217,0.625,0.603,2.252,1.118,4.654v0.005c0.13,0.598,0.266,1.246,0.41,1.94
					c1.491,7.181,3.79,19.188,6.218,32.185c0.003,0.004,0.003,0.004,0,0.009c0.189,1.009,0.378,2.014,0.571,3.031
					c1.086,5.83,2.186,11.791,3.247,17.554c0.122,0.676,0.245,1.346,0.368,2.016c0.266,1.447,0.529,2.875,0.788,4.283
					c0.021,0.123,0.045,0.246,0.066,0.368c0.242,1.324,0.483,2.632,0.714,3.913c0.229,1.236,0.449,2.448,0.67,3.637
					c2.34,12.841,4.108,22.669,4.41,24.338c0.031,0.168,0.046,0.252,0.046,0.252L248.317,433.705z"/>
			</g>
			<g>
				<path fill="#FCFCFC" d="M161.815,221.376c0,0-16.4,4.766-14.188,39.239c2.211,34.476-16.388,77.22,10.397,82.19l73.799-0.916
					c6.961-0.088,12.559-5.754,12.559-12.716V220.604l-15.469-2.684L161.815,221.376L161.815,221.376z"/>
			</g>
			<g>
				<polygon fill="#F8BD8C" points="206.967,208.947 180.265,209.75 181.18,186.818 205.639,186.818 				"/>
			</g>
			<g>
				<path fill="#FCFCFC" d="M177.953,205.559h34.085c2.201,0,4.1,1.634,4.547,3.913l1.936,9.856l-46.898,1.818l1.741-11.456
					C173.729,207.31,175.672,205.559,177.953,205.559z"/>
			</g>
			<g>
				<path fill="#EAB186" d="M206.138,195.114c-1.516,3.218-4.296,6.413-8.256,6.855c-6.799,0.762-13.434-6.781-16.707-10.958
					c-0.654-0.835-0.972-1.532-1.333-2.004c0.562,0.334,1.433,0.912,3.008,1.497c2.623,0.984,6.638,2.004,11.977,1.998
					c3.869-0.004,6.825-0.927,8.958-1.998l2.067-0.035L206.138,195.114z"/>
			</g>
			<g>
				<g>
					
						<ellipse transform="matrix(-0.0314 -0.9995 0.9995 -0.0314 37.4549 357.6576)" fill="#F8BD8C" cx="192.027" cy="160.68" rx="33.395" ry="25.596"/>
				</g>
			</g>
			<g>
				<path fill="#F8BD8C" d="M223.436,161.899c0,3.816-3.312,7.501-6.042,7.501c-2.73,0-4.944-3.093-4.944-6.91
					c0-3.817,3.627-6.911,6.359-6.911C221.541,155.58,223.436,158.083,223.436,161.899z"/>
			</g>
			<g>
				<g>
					<path d="M208.185,149.972c-0.205,0-0.415-0.031-0.62-0.099c-5.491-1.802-9.105-0.164-9.257-0.095
						c-0.988,0.463-2.177,0.042-2.646-0.947c-0.47-0.987-0.065-2.164,0.917-2.643c0.207-0.1,5.124-2.426,12.225-0.102
						c1.045,0.342,1.616,1.468,1.273,2.513C209.802,149.439,209.022,149.972,208.185,149.972z"/>
				</g>
			</g>
			<g>
				<g>
					<path d="M170.023,153.127c-0.64,0-1.265-0.304-1.649-0.87c-0.614-0.903-0.393-2.129,0.506-2.751
						c0.188-0.129,4.695-3.183,12.067-1.958c1.085,0.179,1.82,1.204,1.641,2.29c-0.179,1.086-1.212,1.815-2.291,1.64
						c-5.697-0.938-9.024,1.223-9.163,1.313C170.793,153.016,170.407,153.127,170.023,153.127z"/>
				</g>
			</g>
			<g>
				<g>
					<path d="M191.919,168.838h-1.991c-0.184,0-0.333-0.148-0.333-0.332v-7.468c0-0.183,0.149-0.332,0.333-0.332
						c0.183,0,0.332,0.149,0.332,0.332v7.137h1.66c0.183,0,0.333,0.149,0.333,0.332C192.252,168.69,192.103,168.838,191.919,168.838
						z"/>
				</g>
			</g>
			<g>
				<ellipse cx="177.093" cy="159.418" rx="2.212" ry="2.78"/>
			</g>
			<g>
				<ellipse cx="202.818" cy="156.64" rx="2.213" ry="2.78"/>
			</g>
			<g>
				<path fill="#FCFCFC" d="M183.963,178.077c0.749,3.414,4.766,5.633,9.213,4.997c3.865-0.553,6.812-3.086,7.362-6.027
					L183.963,178.077z"/>
			</g>
			<g>
				<path fill="#0B0635" d="M195.354,113.344c6.944,13.928-9.82,18.931-16.167,26.468c-6.938,8.239-11.733,24.504-11.36,35.335
					c1.021,29.551,11.011,53.237-8.475,80.282c4.04-16.423-2.102-28.976-7.223-43.881c-5.632-16.395-5.537-33.198-3.593-50.228
					c1.464-12.83,1.942-33.588,11.592-43.278C165.669,112.478,190.93,104.468,195.354,113.344z"/>
			</g>
			<g>
				<path fill="#0B0635" d="M193.749,127.415c0,0,3.106,5.462,10.062,8.819c9.852,4.755,11.962,20.405,11.962,20.405l3.999-2.178
					l-7.738-29.122L193.749,127.415z"/>
			</g>
			<g>
				<path fill="#F8BD8C" d="M250.775,401.289l-4.905-1.607c0,0-0.609-0.866,0.066-1.978c0.676-1.112,2.283-1.077,3.066-0.996
					c0.782,0.081,2.407,0.688,2.407,0.688s1.922-2.197,3.889-3.192c0,0-0.513-2.699,0.398-4.456c0,0-2.016-2.055-1.795-5.089
					c0,0-0.208-0.363-0.513-0.928c-0.258,0.114-0.754,0.342-1.076,0.527c-0.448,0.256-0.487,1.715-0.308,2.594
					c0.177,0.879,0.373,3.661,0.095,5.252s-1.494,2.671-3.306,2.61c-1.813-0.061-1.873-1.838-2.224-3.414
					c-0.352-1.577-0.2-3.055-0.074-5.892c0.125-2.836-0.611-4.258-1.153-6.938s-0.344-4.832-0.344-4.832
					c0.239-2.237,1.128-4.939,1.366-5.635c-0.261-1.616-0.24-3.135,0.274-4.265c0.922-2.031-2.074-16.851-2.074-16.851l15.149,1.712
					l-1.412,16.767c0,0,4.742,9.926,6.311,14.387c1.568,4.46,2.71,6.814,2.492,9.028c0,0-2.302,8.922-4.664,10.891
					c-2.424,2.021-7.813,5.561-9.387,5.683c-1.697,0.131-6.205-0.474-6.205-0.474s-1.005-0.046-1.753-0.455
					c0,0-0.726,0.01-0.166-1.507C245.488,401.407,247.042,401.786,250.775,401.289z"/>
			</g>
			<g>
				<path fill="#FCFCFC" d="M236.037,219.045c0,0,21.2-1.517,28.665,28.213c7.467,29.73,6.681,40.874,6.288,59.812
					c-0.394,18.938,21.689,56.323,1.646,80.416c0,0-16.974-8.447-32.693-11.659c0,0-2.749-2.998-1.176-34.246
					C240.335,310.338,236.037,219.045,236.037,219.045L236.037,219.045z"/>
			</g>
			<g>
				<path fill="#EAB186" d="M144.036,389.4c0,0-6.296,0.388-7.52,0.372c0,0,0.09,8.78,3.76,11.771l0.086,0.07L144.036,389.4z"/>
			</g>
		</g>
		<g>
			<path fill="#CCDDE7" d="M154.364,326.483c-0.368,0-0.683-0.278-0.721-0.652c-0.03-0.293-0.729-7.276,0.855-14.567
				c0.813-3.735,0.257-5.892-0.584-9.153c-0.747-2.9-1.677-6.508-2.057-12.612c-0.819-13.148,4.065-20.563,4.274-20.872
				c0.224-0.333,0.676-0.421,1.008-0.196c0.333,0.224,0.42,0.676,0.197,1.008c-0.075,0.112-4.813,7.385-4.029,19.971
				c0.372,5.968,1.282,9.5,2.014,12.34c0.861,3.341,1.482,5.754,0.598,9.825c-1.536,7.064-0.838,14.04-0.83,14.108
				c0.042,0.399-0.249,0.757-0.647,0.798C154.415,326.482,154.389,326.483,154.364,326.483z"/>
		</g>
		<g>
			<path fill="#CCDDE7" d="M236.631,337.67c-0.025,0-0.051-0.001-0.076-0.004c-0.399-0.041-0.689-0.398-0.647-0.797
				c0.593-5.732,1.042-10.893,0.515-15.986c-0.276-2.675-0.606-5.356-0.927-7.948c-0.709-5.76-1.443-11.717-1.599-17.765
				c-0.01-0.401,0.306-0.734,0.708-0.744c0.399-0.02,0.734,0.305,0.745,0.706c0.153,5.978,0.85,11.635,1.588,17.624
				c0.321,2.6,0.652,5.289,0.931,7.978c0.542,5.232,0.087,10.471-0.516,16.286C237.313,337.392,236.998,337.67,236.631,337.67z"/>
		</g>
		<g>
			<path fill="#DC4070" d="M201.834,343.532h-43.81c-0.401,0-0.727-0.326-0.727-0.728c0-0.4,0.325-0.726,0.727-0.726h43.81
				c0.4,0,0.726,0.325,0.726,0.726C202.56,343.207,202.234,343.532,201.834,343.532z"/>
		</g>
	</g>
	<g>
		<g>
			<g>
				<g>
					<path fill="#F8BD8C" d="M413.987,198.193l-12.55,14.938l-3.99,4.748l-35.439,42.181l2.088-58.813
						c4.839-0.297,8.61-4.307,8.61-9.156v-19.752l25.164,0.917c0.341,2.263,0.684,4.533,1.022,6.8
						c0.058,0.385,0.116,0.768,0.174,1.152c0.011,0.057,0.017,0.11,0.025,0.167c0.195,1.3,0.312,2.837,0.459,4.449
						c0.028,0.327,0.059,0.658,0.093,0.991c0.582,5.812,1.835,12.153,8.694,11.725L413.987,198.193z"/>
				</g>
				<g>
					<path fill="#EAB186" d="M399.55,185.824c-1.69,2.953-4.457,5.658-8.238,6.07c-7.222,0.787-14.264-6.989-17.739-11.292
						c-0.373-0.46-0.64-0.879-0.866-1.244v-0.5c0.589,0.336,1.413,0.778,2.646,1.222c2.785,1.013,7.044,2.064,12.714,2.059
						c4.105-0.006,7.245-0.955,9.513-2.059l1.314-0.022c0.058,0.385,0.116,0.768,0.174,1.151c0.01,0.057,0.017,0.111,0.025,0.167
						C399.286,182.675,399.402,184.211,399.55,185.824z"/>
				</g>
				<g>
					<path d="M410.822,167.341c0,0,30.042-3.254,17.816-40.849c-12.226-37.596-49.82-28.731-49.82-28.731
						s-27.813,11.335-31.178,35.163c-3.361,23.828,16.807,30.365,16.807,30.365L410.822,167.341z"/>
				</g>
				<g>
					<path d="M397.721,99.689c0,0,8.623-14.486,5.3-18.121c-3.321-3.635-7.501-7.856-15.899-6.347
						c-8.4,1.509-10.182,9.832-9.376,12.614c0.807,2.783,2.873,8.318,5.608,12.81C386.09,105.135,397.721,99.689,397.721,99.689z"/>
				</g>
				<g>
					<g>
						
							<ellipse transform="matrix(-0.0949 0.9955 -0.9955 -0.0949 577.8822 -219.5716)" fill="#F8BD8C" cx="388.76" cy="152.923" rx="32.809" ry="25.148"/>
					</g>
				</g>
				<g>
					<path d="M384.625,115.793c0,0,10.392,20.938,30.564,32.245c20.174,11.31,1.986-28.73,1.986-28.73L384.625,115.793z"/>
				</g>
				<g>
					<path fill="#F8BD8C" d="M356.08,148.548c0,4.117,3.572,8.095,6.518,8.095c2.946,0,5.336-3.338,5.336-7.457
						s-3.915-7.457-6.86-7.457C358.127,141.729,356.08,144.429,356.08,148.548z"/>
				</g>
				<g>
					<path fill="#F8BD8C" d="M418.865,150.637c0,4.119-3.572,8.096-6.52,8.096c-2.944,0-5.334-3.339-5.334-7.456
						s3.914-7.456,6.859-7.456C416.818,143.821,418.865,146.521,418.865,150.637z"/>
				</g>
				<g>
					<g>
						<ellipse cx="378.344" cy="147.767" rx="2.205" ry="2.885"/>
					</g>
				</g>
				<g>
					<g>
						<ellipse cx="400.683" cy="149.186" rx="2.204" ry="2.885"/>
					</g>
				</g>
				<g>
					<g>
						<path d="M382.024,141.091c-0.18,0.02-0.364,0.019-0.547-0.008c-4.934-0.731-7.952,0.78-8.08,0.844
							c-0.824,0.423-1.895,0.244-2.382-0.407c-0.488-0.65-0.229-1.52,0.59-1.955c0.172-0.09,4.272-2.216,10.649-1.277
							c0.939,0.138,1.525,0.876,1.31,1.647C383.392,140.556,382.754,141.008,382.024,141.091z"/>
					</g>
				</g>
				<g>
					<g>
						<path d="M407.143,142.62c-0.177-0.036-0.353-0.093-0.52-0.176c-4.474-2.199-7.811-1.681-7.951-1.658
							c-0.913,0.152-1.879-0.346-2.145-1.115c-0.267-0.768,0.246-1.518,1.158-1.681c0.19-0.034,4.745-0.807,10.532,2.032
							c0.851,0.418,1.186,1.3,0.745,1.968C408.608,142.526,407.864,142.764,407.143,142.62z"/>
					</g>
				</g>
				<g>
					<g>
						<path fill="#080305" d="M389.494,159.287c-0.378,0-0.749-0.118-1.054-0.34c-0.932-0.684-0.979-1.165-0.869-2.267l0.451-4.639
							c0.018-0.173,0.175-0.299,0.345-0.282c0.173,0.016,0.299,0.171,0.282,0.344l-0.452,4.64c-0.099,0.987-0.062,1.201,0.616,1.697
							c0.261,0.191,0.599,0.262,0.93,0.193l1.179-0.246c0.168-0.038,0.336,0.074,0.372,0.244c0.035,0.17-0.073,0.337-0.244,0.373
							l-1.179,0.246C389.746,159.274,389.619,159.287,389.494,159.287z"/>
					</g>
				</g>
				<g>
					<path fill="#FFFFFF" d="M379.617,167.351c0.553,3.559,4.543,6.096,9.16,5.723c4.011-0.324,7.203-2.743,7.956-5.733
						L379.617,167.351z"/>
				</g>
				<g>
					<circle fill="#080305" cx="361.891" cy="154.74" r="0.769"/>
				</g>
				<g>
					<circle fill="#080305" cx="413.836" cy="156.234" r="0.769"/>
				</g>
				<g>
					<polygon fill="#F8BD8C" points="432.16,372.017 411.154,381.097 399.04,368.354 425.445,349.295 436.688,370.236 					"/>
				</g>
				<g>
					<path fill="#F8BD8C" d="M313.191,422.506l4.742-1.553c0,0,0.589-0.838-0.063-1.913c-0.652-1.074-2.207-1.04-2.964-0.962
						s-2.327,0.666-2.327,0.666s-1.858-2.125-3.758-3.085c0,0,0.496-2.61-0.385-4.308c0,0,1.947-1.988,1.735-4.921
						c0,0,0.2-0.352,0.496-0.896c0.249,0.11,0.729,0.331,1.04,0.507c0.433,0.249,0.47,1.66,0.3,2.509
						c-0.172,0.849-0.361,3.54-0.093,5.076c0.269,1.537,1.443,2.581,3.196,2.524c1.751-0.06,1.81-1.776,2.149-3.3
						c0.339-1.523,0.193-2.953,0.07-5.695c-0.121-2.742,0.591-4.117,1.115-6.705c0.524-2.592,0.332-4.672,0.332-4.672
						c-0.229-2.163-1.09-4.775-1.32-5.447c0.254-1.562,0.232-3.03-0.264-4.124c-0.894-1.964,2.005-16.289,2.005-16.289
						l-14.644,1.657l1.362,16.205c0,0-4.581,9.597-6.099,13.909c-1.518,4.311-2.621,6.585-2.409,8.728c0,0,2.224,8.622,4.509,10.527
						c2.342,1.952,7.551,5.377,9.073,5.493c1.641,0.125,5.998-0.459,5.998-0.459s0.972-0.044,1.696-0.439c0,0,0.7,0.011,0.16-1.456
						C318.304,422.62,316.801,422.986,313.191,422.506z"/>
				</g>
				<g>
					<path fill="#ABABAB" d="M338.606,211.78c0,0-12.666,6.921-14.501,16.693c-1.833,9.773-7.946,23.567-11.308,29.316
						c-3.362,5.746-7.641,17.533-8.253,21.555c-0.612,4.023-9.17,61.793-6.725,75.589s0.551,24.525,5.268,26.442
						c4.717,1.915,19.796,0,19.796,0l22.007-134.126L338.606,211.78z"/>
				</g>
				<g>
					<path fill="#190444" d="M430.323,433.271H308.787c0.276-2.347,0.579-4.771,0.904-7.261c0.378-2.869,0.791-5.829,1.247-8.869
						c0.266-1.786,0.545-3.598,0.841-5.438V411.7c1.316-8.219,2.925-16.938,4.883-25.981v-0.004c0.126-0.584,0.257-1.17,0.386-1.758
						c0-0.003,0-0.007,0.003-0.011c0.139-0.631,0.277-1.257,0.421-1.891c0.01-0.051,0.021-0.1,0.031-0.148
						c0.624-2.753,1.279-5.538,1.97-8.34c0.403-1.651,0.819-3.311,1.253-4.976c1.745-6.758,3.693-13.612,5.872-20.506
						c0,0,0,0,0-0.004c0.385-1.22,0.777-2.441,1.177-3.664c0,0,0.36-0.347,1.317-0.871c2.134-1.17,7.226-3.216,17.925-4.249v-0.004
						c0.015,0,0.032-0.004,0.049-0.004c5.22-0.504,11.771-0.763,19.956-0.568c9.073,0.219,20.156,0.999,33.664,2.642
						c0,0,0.745,2.588,2.018,6.724c1.159,3.75,2.753,8.777,4.618,14.291c1.717,5.077,3.663,10.565,5.716,15.855
						c0.228,0.589,0.455,1.173,0.688,1.755c2.672,6.757,5.496,13.069,8.188,17.616C425.85,404.245,428.6,418.513,430.323,433.271z"
						/>
				</g>
				<g>
					<path fill="#ABABAB" d="M327.774,305.603c0.305-3.058,1.98-23.535,1.98-23.535s1.076-29.037,0.061-39.124
						c-0.647-6.334,3.778-18.815,7.152-27.228c0.588-1.454,1.137-2.775,1.639-3.937l6.577-2.714l22.533-9.317
						c0,0-4.487,33.818-2.042,52.157c0,0,35.859-37.485,43.194-54.601c0,0,24.452,4.475,30.565,3.667
						c6.112-0.819,19.978,2.85,25.674,45.64c5.71,42.791,24.049,65.202,24.867,72.952c0.808,7.74,4.891,16.298-4.89,26.078
						c-9.781,9.781-26.092,24.856-28.12,27.717c-2.041,2.849-22.006,7.738-22.006,7.738l-20.75-37.66
						c-0.673-1.222-0.15-2.758,1.133-3.31c3.481-1.504,9.728-4.219,11.462-5.086c2.444-1.221,18.131-9.365,18.131-9.365
						s-12.324-16.713-13.853-34.44c-0.686-7.922-1.002-14.182-1.138-18.704c-0.183,15.196-2.127,46.959-14.549,63.33l-6.528,12.227
						h-82.272c0,0-0.409-2.57,0-4.839C327.331,339.164,327.47,308.658,327.774,305.603z"/>
				</g>
			</g>
			<g>
				<path fill="#8E8D8E" d="M306.136,382.334c-0.063,0-0.128-0.01-0.192-0.026l-4.422-1.211c-1.037-0.283-2.305-1.509-2.902-8.524
					c-0.3-3.503-0.29-6.967-0.288-7.347l-1.671-19.813c-0.003-0.035-0.003-0.071-0.002-0.105l1.061-17.049
					c0.04-0.369,3.756-33.532,4.936-40.906c1.233-7.715,3.104-16.872,7.625-26.294c4.485-9.352,12.038-28.226,12.113-28.415
					c0.147-0.374,0.571-0.554,0.943-0.406c0.372,0.149,0.554,0.573,0.404,0.944c-0.075,0.189-7.645,19.109-12.151,28.505
					c-4.44,9.253-6.283,18.281-7.5,25.896c-1.176,7.339-4.887,40.469-4.923,40.803l-1.055,16.958l1.669,19.793
					c0.002,0.021,0.003,0.044,0.003,0.066c-0.065,7.523,0.906,14.16,2.121,14.494l4.422,1.211c0.388,0.104,0.616,0.504,0.509,0.892
					C306.747,382.122,306.455,382.333,306.136,382.334z"/>
			</g>
			<g>
				<path fill="#8E8D8E" d="M325.373,334.478c-0.195,0-0.392-0.079-0.536-0.235c-0.232-0.256-2.297-2.974-2.595-19.595
					c-0.299-16.636,3.063-29.04,3.967-30.312c0.231-0.326,0.685-0.403,1.012-0.173c0.326,0.231,0.404,0.681,0.176,1.009
					c-0.614,0.988-3.999,12.887-3.7,29.45c0.282,15.725,2.118,18.503,2.235,18.662c0.247,0.298,0.22,0.739-0.066,1.002
					C325.724,334.414,325.55,334.478,325.373,334.478z"/>
			</g>
			<g>
				<path fill="#8E8D8E" d="M365.675,252.632c-0.081,0-0.161-0.014-0.24-0.041c-0.264-0.093-0.451-0.328-0.481-0.604
					c-0.024-0.227-2.503-23.049,1.898-52.002c0.061-0.396,0.428-0.67,0.827-0.609c0.396,0.061,0.669,0.431,0.608,0.828
					c-3.723,24.487-2.494,44.529-2.032,50.089c6.021-6.106,35.104-36.133,41.94-53.258c0.148-0.372,0.571-0.554,0.943-0.405
					c0.372,0.149,0.555,0.572,0.405,0.944c-7.708,19.313-41.904,53.406-43.356,54.848
					C366.048,252.559,365.863,252.632,365.675,252.632z"/>
			</g>
			<g>
				<path fill="#8E8D8E" d="M456.966,374.085c-0.165,0-0.332-0.056-0.467-0.17c-0.307-0.259-0.348-0.718-0.09-1.022
					c0.071-0.086,7.242-8.572,20.769-20.52l0.472-0.417c4.675-4.125,10.492-9.258,12.31-15.337
					c2.259-7.555,0.636-16.496-4.822-26.571c-4.521-8.344-8.054-17.342-11.468-26.044c-0.367-0.936-0.734-1.869-1.101-2.801
					c-0.147-0.373,0.035-0.795,0.408-0.941c0.376-0.146,0.797,0.036,0.942,0.409c0.369,0.934,0.734,1.868,1.102,2.803
					c3.399,8.66,6.915,17.617,11.394,25.883c5.649,10.427,7.31,19.74,4.937,27.68c-1.936,6.476-7.927,11.763-12.739,16.009
					l-0.471,0.417c-13.437,11.87-20.548,20.281-20.618,20.365C457.378,373.996,457.173,374.085,456.966,374.085z"/>
			</g>
			<g>
				<path fill="#8E8D8E" d="M426.657,307.732c-0.044,0-0.089-0.004-0.135-0.015c-0.396-0.074-0.655-0.453-0.581-0.848
					c0.005-0.021,0.427-2.262,1.327-7.827c0.896-5.539,1.941-26.34,1.951-26.55c0.021-0.401,0.371-0.708,0.762-0.688
					c0.4,0.02,0.71,0.359,0.69,0.761c-0.044,0.859-1.061,21.09-1.969,26.709c-0.902,5.588-1.33,7.843-1.334,7.864
					C427.304,307.489,427,307.732,426.657,307.732z"/>
			</g>
		</g>
		<g>
			<path fill="#080305" d="M382.732,207.927c-1.071,0-2.101-0.135-3.089-0.407c-6.782-1.861-9.041-9.663-9.063-9.741l0.351-0.098
				c0.021,0.076,2.228,7.684,8.812,9.49c6.048,1.658,13.76-1.93,22.925-10.667l0.252,0.263
				C395.135,204.188,388.362,207.927,382.732,207.927z"/>
		</g>
	</g>
</g>
<rect x="0.497" y="433.026" fill="#A1C3E5" width="500" height="5"/>
</svg>
